<mxfile host="app.diagrams.net" agent="Mozilla/5.0 (X11; Linux x86_64; rv:133.0) Gecko/20100101 Firefox/133.0" version="25.0.3">
  <diagram name="Page-1" id="QF431WOAxsoj_1YAFHMA">
    <mxGraphModel dx="1434" dy="743" grid="1" gridSize="10" guides="1" tooltips="1" connect="1" arrows="1" fold="1" page="1" pageScale="1" pageWidth="827" pageHeight="1169" math="0" shadow="0">
      <root>
        <mxCell id="0" />
        <mxCell id="1" parent="0" />
        <mxCell id="VVv3n9GBY3camFDf8Arm-1" style="edgeStyle=orthogonalEdgeStyle;rounded=0;orthogonalLoop=1;jettySize=auto;html=1;exitX=0.5;exitY=1;exitDx=0;exitDy=0;entryX=0.5;entryY=0;entryDx=0;entryDy=0;" edge="1" parent="1" source="VVv3n9GBY3camFDf8Arm-2" target="VVv3n9GBY3camFDf8Arm-6">
          <mxGeometry relative="1" as="geometry" />
        </mxCell>
        <mxCell id="VVv3n9GBY3camFDf8Arm-2" value="Utilisateur&lt;br&gt;base adhérents" style="rounded=1;whiteSpace=wrap;html=1;" vertex="1" parent="1">
          <mxGeometry x="60" y="80" width="120" height="60" as="geometry" />
        </mxCell>
        <mxCell id="VVv3n9GBY3camFDf8Arm-3" style="edgeStyle=orthogonalEdgeStyle;rounded=0;orthogonalLoop=1;jettySize=auto;html=1;exitX=0.5;exitY=1;exitDx=0;exitDy=0;entryX=0.5;entryY=0;entryDx=0;entryDy=0;" edge="1" parent="1" source="VVv3n9GBY3camFDf8Arm-6" target="VVv3n9GBY3camFDf8Arm-8">
          <mxGeometry relative="1" as="geometry" />
        </mxCell>
        <mxCell id="VVv3n9GBY3camFDf8Arm-4" style="edgeStyle=orthogonalEdgeStyle;rounded=0;orthogonalLoop=1;jettySize=auto;html=1;exitX=1;exitY=0.5;exitDx=0;exitDy=0;entryX=0;entryY=0.75;entryDx=0;entryDy=0;" edge="1" parent="1" source="VVv3n9GBY3camFDf8Arm-6" target="VVv3n9GBY3camFDf8Arm-12">
          <mxGeometry relative="1" as="geometry" />
        </mxCell>
        <mxCell id="VVv3n9GBY3camFDf8Arm-5" style="edgeStyle=orthogonalEdgeStyle;rounded=0;orthogonalLoop=1;jettySize=auto;html=1;exitX=1;exitY=0.25;exitDx=0;exitDy=0;entryX=0.5;entryY=0;entryDx=0;entryDy=0;" edge="1" parent="1" source="VVv3n9GBY3camFDf8Arm-6" target="VVv3n9GBY3camFDf8Arm-16">
          <mxGeometry relative="1" as="geometry">
            <Array as="points">
              <mxPoint x="220" y="218" />
              <mxPoint x="220" y="170" />
              <mxPoint x="530" y="170" />
            </Array>
          </mxGeometry>
        </mxCell>
        <mxCell id="VVv3n9GBY3camFDf8Arm-6" value="Ferme&lt;br&gt;(Infos, description)" style="rounded=1;whiteSpace=wrap;html=1;" vertex="1" parent="1">
          <mxGeometry x="60" y="210" width="120" height="50" as="geometry" />
        </mxCell>
        <mxCell id="VVv3n9GBY3camFDf8Arm-7" style="edgeStyle=orthogonalEdgeStyle;rounded=0;orthogonalLoop=1;jettySize=auto;html=1;exitX=0.5;exitY=1;exitDx=0;exitDy=0;entryX=0.5;entryY=0;entryDx=0;entryDy=0;" edge="1" parent="1" source="VVv3n9GBY3camFDf8Arm-8" target="VVv3n9GBY3camFDf8Arm-10">
          <mxGeometry relative="1" as="geometry" />
        </mxCell>
        <mxCell id="VVv3n9GBY3camFDf8Arm-8" value="Outils : séchoir,&amp;nbsp;&lt;div&gt;labo, alambic..&lt;/div&gt;" style="rounded=1;whiteSpace=wrap;html=1;" vertex="1" parent="1">
          <mxGeometry x="60" y="290" width="120" height="50" as="geometry" />
        </mxCell>
        <mxCell id="VVv3n9GBY3camFDf8Arm-9" style="edgeStyle=orthogonalEdgeStyle;rounded=0;orthogonalLoop=1;jettySize=auto;html=1;exitX=1;exitY=0.5;exitDx=0;exitDy=0;entryX=0;entryY=0.5;entryDx=0;entryDy=0;" edge="1" parent="1" source="VVv3n9GBY3camFDf8Arm-10" target="VVv3n9GBY3camFDf8Arm-19">
          <mxGeometry relative="1" as="geometry" />
        </mxCell>
        <mxCell id="VVv3n9GBY3camFDf8Arm-10" value="Etapes de transformation" style="rounded=1;whiteSpace=wrap;html=1;" vertex="1" parent="1">
          <mxGeometry x="60" y="370" width="120" height="60" as="geometry" />
        </mxCell>
        <mxCell id="VVv3n9GBY3camFDf8Arm-11" style="edgeStyle=orthogonalEdgeStyle;rounded=0;orthogonalLoop=1;jettySize=auto;html=1;exitX=0.5;exitY=1;exitDx=0;exitDy=0;" edge="1" parent="1" source="VVv3n9GBY3camFDf8Arm-12" target="VVv3n9GBY3camFDf8Arm-23">
          <mxGeometry relative="1" as="geometry" />
        </mxCell>
        <mxCell id="VVv3n9GBY3camFDf8Arm-12" value="Plantes&lt;br&gt;cultivées et cueillies" style="rounded=1;whiteSpace=wrap;html=1;" vertex="1" parent="1">
          <mxGeometry x="250" y="190" width="90" height="70" as="geometry" />
        </mxCell>
        <mxCell id="VVv3n9GBY3camFDf8Arm-13" style="edgeStyle=orthogonalEdgeStyle;rounded=0;orthogonalLoop=1;jettySize=auto;html=1;exitX=1;exitY=0.5;exitDx=0;exitDy=0;" edge="1" parent="1" source="VVv3n9GBY3camFDf8Arm-16" target="VVv3n9GBY3camFDf8Arm-17">
          <mxGeometry relative="1" as="geometry" />
        </mxCell>
        <mxCell id="VVv3n9GBY3camFDf8Arm-14" style="edgeStyle=orthogonalEdgeStyle;rounded=0;orthogonalLoop=1;jettySize=auto;html=1;exitX=0.5;exitY=1;exitDx=0;exitDy=0;entryX=0.75;entryY=0;entryDx=0;entryDy=0;" edge="1" parent="1" source="VVv3n9GBY3camFDf8Arm-16" target="VVv3n9GBY3camFDf8Arm-19">
          <mxGeometry relative="1" as="geometry">
            <Array as="points">
              <mxPoint x="530" y="350" />
              <mxPoint x="375" y="350" />
            </Array>
          </mxGeometry>
        </mxCell>
        <mxCell id="VVv3n9GBY3camFDf8Arm-15" style="edgeStyle=orthogonalEdgeStyle;rounded=0;orthogonalLoop=1;jettySize=auto;html=1;exitX=1;exitY=0.25;exitDx=0;exitDy=0;entryX=0;entryY=0.5;entryDx=0;entryDy=0;" edge="1" parent="1" source="VVv3n9GBY3camFDf8Arm-16" target="VVv3n9GBY3camFDf8Arm-32">
          <mxGeometry relative="1" as="geometry" />
        </mxCell>
        <mxCell id="VVv3n9GBY3camFDf8Arm-16" value="Intrants" style="rounded=1;whiteSpace=wrap;html=1;" vertex="1" parent="1">
          <mxGeometry x="480" y="260" width="120" height="40" as="geometry" />
        </mxCell>
        <mxCell id="VVv3n9GBY3camFDf8Arm-17" value="justificatifs" style="rounded=1;whiteSpace=wrap;html=1;" vertex="1" parent="1">
          <mxGeometry x="650" y="260" width="100" height="40" as="geometry" />
        </mxCell>
        <mxCell id="VVv3n9GBY3camFDf8Arm-18" style="edgeStyle=orthogonalEdgeStyle;rounded=0;orthogonalLoop=1;jettySize=auto;html=1;exitX=1;exitY=0.5;exitDx=0;exitDy=0;" edge="1" parent="1" source="VVv3n9GBY3camFDf8Arm-19" target="VVv3n9GBY3camFDf8Arm-26">
          <mxGeometry relative="1" as="geometry" />
        </mxCell>
        <mxCell id="VVv3n9GBY3camFDf8Arm-19" value="Recettes" style="rounded=1;whiteSpace=wrap;html=1;" vertex="1" parent="1">
          <mxGeometry x="285" y="370" width="120" height="60" as="geometry" />
        </mxCell>
        <mxCell id="VVv3n9GBY3camFDf8Arm-20" style="edgeStyle=orthogonalEdgeStyle;rounded=0;orthogonalLoop=1;jettySize=auto;html=1;exitX=0.5;exitY=1;exitDx=0;exitDy=0;entryX=0.5;entryY=0;entryDx=0;entryDy=0;" edge="1" parent="1" source="VVv3n9GBY3camFDf8Arm-21" target="VVv3n9GBY3camFDf8Arm-23">
          <mxGeometry relative="1" as="geometry" />
        </mxCell>
        <mxCell id="VVv3n9GBY3camFDf8Arm-21" value="Formes&lt;br&gt;PA, fleur..." style="rounded=1;whiteSpace=wrap;html=1;" vertex="1" parent="1">
          <mxGeometry x="360" y="210" width="80" height="50" as="geometry" />
        </mxCell>
        <mxCell id="VVv3n9GBY3camFDf8Arm-22" style="edgeStyle=orthogonalEdgeStyle;rounded=0;orthogonalLoop=1;jettySize=auto;html=1;exitX=0.5;exitY=1;exitDx=0;exitDy=0;entryX=0.5;entryY=0;entryDx=0;entryDy=0;" edge="1" parent="1" source="VVv3n9GBY3camFDf8Arm-23" target="VVv3n9GBY3camFDf8Arm-19">
          <mxGeometry relative="1" as="geometry" />
        </mxCell>
        <mxCell id="VVv3n9GBY3camFDf8Arm-23" value="Matières premières produites" style="rounded=1;whiteSpace=wrap;html=1;" vertex="1" parent="1">
          <mxGeometry x="250" y="300" width="190" height="40" as="geometry" />
        </mxCell>
        <mxCell id="VVv3n9GBY3camFDf8Arm-24" style="edgeStyle=orthogonalEdgeStyle;rounded=0;orthogonalLoop=1;jettySize=auto;html=1;exitX=1;exitY=0.5;exitDx=0;exitDy=0;entryX=0;entryY=0.5;entryDx=0;entryDy=0;" edge="1" parent="1" source="VVv3n9GBY3camFDf8Arm-26" target="VVv3n9GBY3camFDf8Arm-27">
          <mxGeometry relative="1" as="geometry" />
        </mxCell>
        <mxCell id="VVv3n9GBY3camFDf8Arm-25" style="edgeStyle=orthogonalEdgeStyle;rounded=0;orthogonalLoop=1;jettySize=auto;html=1;exitX=1;exitY=0.75;exitDx=0;exitDy=0;entryX=0;entryY=0.5;entryDx=0;entryDy=0;" edge="1" parent="1" source="VVv3n9GBY3camFDf8Arm-26" target="VVv3n9GBY3camFDf8Arm-28">
          <mxGeometry relative="1" as="geometry" />
        </mxCell>
        <mxCell id="VVv3n9GBY3camFDf8Arm-26" value="Produits" style="rounded=1;whiteSpace=wrap;html=1;" vertex="1" parent="1">
          <mxGeometry x="470" y="370" width="120" height="60" as="geometry" />
        </mxCell>
        <mxCell id="VVv3n9GBY3camFDf8Arm-27" value="Etiquettes" style="rounded=1;whiteSpace=wrap;html=1;" vertex="1" parent="1">
          <mxGeometry x="640" y="360" width="120" height="30" as="geometry" />
        </mxCell>
        <mxCell id="VVv3n9GBY3camFDf8Arm-28" value="Conformités" style="rounded=1;whiteSpace=wrap;html=1;" vertex="1" parent="1">
          <mxGeometry x="640" y="400" width="120" height="30" as="geometry" />
        </mxCell>
        <mxCell id="VVv3n9GBY3camFDf8Arm-29" style="edgeStyle=orthogonalEdgeStyle;rounded=0;orthogonalLoop=1;jettySize=auto;html=1;exitX=0.5;exitY=1;exitDx=0;exitDy=0;" edge="1" parent="1" source="VVv3n9GBY3camFDf8Arm-30" target="VVv3n9GBY3camFDf8Arm-12">
          <mxGeometry relative="1" as="geometry" />
        </mxCell>
        <mxCell id="VVv3n9GBY3camFDf8Arm-30" value="Liste de plantes&lt;br&gt;exhaustive" style="rounded=1;whiteSpace=wrap;html=1;" vertex="1" parent="1">
          <mxGeometry x="235" y="80" width="120" height="60" as="geometry" />
        </mxCell>
        <mxCell id="VVv3n9GBY3camFDf8Arm-31" style="edgeStyle=orthogonalEdgeStyle;rounded=0;orthogonalLoop=1;jettySize=auto;html=1;exitX=0.5;exitY=0;exitDx=0;exitDy=0;entryX=0.5;entryY=1;entryDx=0;entryDy=0;" edge="1" parent="1" source="VVv3n9GBY3camFDf8Arm-32" target="VVv3n9GBY3camFDf8Arm-33">
          <mxGeometry relative="1" as="geometry" />
        </mxCell>
        <mxCell id="VVv3n9GBY3camFDf8Arm-32" value="Fournisseurs" style="rounded=1;whiteSpace=wrap;html=1;" vertex="1" parent="1">
          <mxGeometry x="650" y="180" width="110" height="40" as="geometry" />
        </mxCell>
        <mxCell id="VVv3n9GBY3camFDf8Arm-33" value="Liste de fournisseurs&lt;br&gt;recommandés ?" style="rounded=1;whiteSpace=wrap;html=1;" vertex="1" parent="1">
          <mxGeometry x="645" y="70" width="120" height="60" as="geometry" />
        </mxCell>
      </root>
    </mxGraphModel>
  </diagram>
</mxfile>
